<svg width="75" height="75" viewBox="0 0 75 75" fill="none" xmlns="http://www.w3.org/2000/svg">
<path d="M20.475 27.9C21.825 29.8688 24.2625 31.9125 26.8125 31.425C28.9313 31.0313 30.6188 29.2875 32.0063 27.7313C33.45 26.1 34.7625 24.3375 36.3375 22.8C39.3188 19.875 42.9563 17.6625 47.0813 16.8375H47.1C47.8875 16.6875 48.0188 15.5813 47.2688 15.2625C44.325 14.025 41.1 13.3125 37.6875 13.3125C31.4625 13.3125 25.7813 15.675 21.4875 19.5375C19.125 21.675 18.6563 25.2375 20.4375 27.8625C20.4563 27.8813 20.4563 27.9 20.475 27.9Z"/>
<path d="M36.6937 58.1437C39.4875 55.8375 41.6062 52.8562 43.9312 50.1187C46.125 47.5687 48.5812 44.8125 51.6375 43.2937C54.6375 41.7937 56.5312 41.0812 59.5875 44.1562C60.5437 45.1125 60.975 43.8 61.0312 43.8562C61.65 41.7375 61.875 39.8437 61.875 37.5187C61.875 32.8125 60.525 28.425 58.2 24.6937C54.8625 19.3875 47.9812 17.5125 42.4687 20.5125C42.4312 20.5312 42.4125 20.55 42.375 20.5687C40.5562 21.5812 38.925 22.875 37.4625 24.3375C35.9062 25.8937 34.6125 27.6562 33.1312 29.2875C31.725 30.8437 30.075 32.3437 28.05 33.0375C25.9688 33.75 23.775 33.2437 21.9937 32.0062C21.1312 31.4062 20.3812 30.7125 19.7438 29.9625C18.1125 28.05 14.9625 28.7812 14.325 31.2C13.7813 33.2062 13.5 35.325 13.5 37.5C13.5 47.8312 19.9875 56.6625 29.1187 60.1312C30.675 60.7312 32.4187 60.6562 33.9375 59.9437C34.9125 59.475 35.85 58.8375 36.6937 58.1437Z" fill="#84926E"/>
<path d="M57.7313 44.4937C54.3375 43.3125 51.2438 45.4125 48.8625 47.6625C46.3875 50.0062 44.3063 52.6875 42.1125 55.2937C40.65 57.0375 39.0375 58.8187 37.1625 60.1875C36.5063 60.675 36.8625 61.7062 37.6688 61.7062H37.6875C47.1375 61.7062 55.3125 56.2875 59.2875 48.3937C60.0375 46.9125 59.325 45.075 57.75 44.5125C57.75 44.4937 57.7313 44.4937 57.7313 44.4937Z"/>
</svg>
